<svg width="41" height="41" viewBox="0 0 41 41" fill="none" xmlns="http://www.w3.org/2000/svg">
<path d="M28.8029 0.244974C35.5829 0.244974 40.1229 5.00497 40.1229 12.085V28.427C40.1229 35.487 35.5829 40.245 28.8029 40.245H11.4629C4.68289 40.245 0.122887 35.487 0.122887 28.427V12.085C0.122887 5.00497 4.68289 0.244974 11.4629 0.244974H28.8029ZM26.1429 14.187C25.4629 13.505 24.3629 13.505 23.6629 14.187L20.1229 17.745L16.5629 14.187C15.8629 13.505 14.7629 13.505 14.0829 14.187C13.4029 14.867 13.4029 15.987 14.0829 16.665L17.6429 20.227L14.0829 23.767C13.4029 24.467 13.4029 25.567 14.0829 26.245C14.4229 26.585 14.8829 26.767 15.3229 26.767C15.7829 26.767 16.2229 26.585 16.5629 26.245L20.1229 22.707L23.6829 26.245C24.0229 26.607 24.4629 26.767 24.9029 26.767C25.3629 26.767 25.8029 26.585 26.1429 26.245C26.8229 25.567 26.8229 24.467 26.1429 23.787L22.5829 20.227L26.1429 16.665C26.8229 15.987 26.8229 14.867 26.1429 14.187Z" fill="black"/>
</svg>
